# xmcd CD database file
#
# Track frame offsets:
#	150
#	15140
#	30549
#	43851
#	56361
#	71358
#	87265
#	101151
#	116083
#	129750
#	144120
#	157933
#	171649
#	183815
#	197556
#	211538
#	223974
#	236883
#	250050
#	263465
#
# Disc length: 3693 seconds
#
# Revision: 7
# Processed by: cddbd v1.5.2PL0 Copyright (c) Steve Scherf et al.
# Submitted via: CDex 1.70
#
DISCID=060e6b14
DTITLE=Jimmie Rodgers - The Essential Jimmie Rodgers
DYEAR=1997
DGENRE=Country
TTITLE0=Away Out on the Mountain
TTITLE1=Blue Yodel No. 1 (T for Texas)
TTITLE2=Daddy and Home
TTITLE3=Dear Old Sunny South by the Sea
TTITLE4=In the Jailhouse Now
TTITLE5=Memphis Yodel
TTITLE6=My Old Pal
TTITLE7=Blue Yodel No. 2 (My Lovin' Gal Lucille)
TTITLE8=Sleep, Baby, Sleep
TTITLE9=The Brakeman's Blues (Yodeling the Blues Away)
TTITLE10=The Sailor's Pleas
TTITLE11=My Little Old Home Down in New Orleans
TTITLE12=Never No Mo' Blues
TTITLE13=Blue Yodel No. 4 (California Blues)
TTITLE14=I'm Lonely and Blue
TTITLE15=Waiting for a Train
TTITLE16=Frankie And Johnnie
TTITLE17=Pistol Packin' Papa
TTITLE18=Blue Yodel No. 8 (Mule Skinner Blues)
TTITLE19=T.B. Blues
EXTD=YEAR: 1997
EXTT0=
EXTT1=
EXTT2=
EXTT3=
EXTT4=
EXTT5=
EXTT6=
EXTT7=
EXTT8=
EXTT9=
EXTT10=
EXTT11=
EXTT12=
EXTT13=
EXTT14=
EXTT15=
EXTT16=
EXTT17=
EXTT18=
EXTT19=
PLAYORDER=
